<?xml version="1.0" standalone="no"?>
<!DOCTYPE svg PUBLIC "-//W3C//DTD SVG 20010904//EN"
 "http://www.w3.org/TR/2001/REC-SVG-20010904/DTD/svg10.dtd">
<svg version="1.0" xmlns="http://www.w3.org/2000/svg"
 width="1024.000000pt" height="1024.000000pt" viewBox="0 0 1024.000000 1024.000000"
 preserveAspectRatio="xMidYMid meet">
<metadata>
Created by potrace 1.11, written by Peter Selinger 2001-2013
</metadata>
<g transform="translate(0.000000,1024.000000) scale(0.100000,-0.100000)"
fill="#000000" stroke="none">
<path d="M6597 9604 c-3 -3 -50 -8 -104 -10 -54 -2 -114 -6 -133 -9 -19 -3
-53 -8 -75 -11 -53 -7 -167 -48 -218 -79 -48 -29 -87 -60 -87 -70 0 -3 -10
-16 -21 -28 -43 -45 -94 -177 -106 -276 -6 -49 -11 -76 -13 -76 -3 0 0 -325 4
-380 6 -86 15 -171 27 -240 5 -33 10 -67 10 -75 0 -8 7 -49 14 -90 8 -41 17
-90 20 -107 11 -72 23 -128 25 -128 1 0 3 -11 5 -25 2 -19 57 -243 80 -330 9
-31 57 -197 71 -245 8 -27 16 -54 17 -60 2 -5 5 -14 9 -20 5 -8 40 -119 42
-135 1 -3 6 -18 13 -35 22 -58 26 -70 29 -84 1 -7 12 -36 23 -65 38 -95 44
-111 47 -121 6 -26 93 -235 150 -363 35 -78 64 -147 64 -152 0 -6 5 -10 10
-10 6 0 10 -6 10 -12 0 -13 100 -215 160 -324 56 -101 124 -219 133 -229 4 -5
30 -46 57 -89 27 -44 53 -82 58 -85 5 -3 11 -13 14 -21 5 -15 128 -180 151
-205 7 -7 27 -32 46 -55 63 -77 271 -279 271 -263 0 5 4 3 8 -2 11 -16 80 -65
90 -65 6 0 12 -3 14 -8 2 -4 30 -21 63 -39 119 -62 256 -91 343 -72 53 11 122
43 150 69 12 11 26 20 32 20 5 0 10 5 10 12 0 6 2 9 5 6 8 -8 139 124 216 217
117 142 280 393 385 595 21 41 42 77 46 78 5 2 8 9 8 15 0 6 22 56 49 111 51
104 141 303 145 321 1 6 10 28 20 50 10 22 19 45 20 50 2 6 9 24 15 40 38 89
150 415 144 415 -3 0 -1 6 4 13 10 12 34 92 34 112 1 6 5 16 11 23 6 6 7 12 3
12 -4 0 -2 7 5 15 7 8 9 15 5 15 -4 0 -2 7 5 15 7 8 10 15 7 15 -3 0 6 39 20
88 13 48 26 98 28 112 4 28 7 37 23 95 6 22 13 54 16 70 2 17 11 62 20 100 8
39 17 86 20 105 3 19 8 46 11 60 3 14 8 45 11 70 3 25 8 54 10 65 3 11 7 40 9
65 3 25 7 61 10 80 24 165 37 551 21 630 -20 98 -70 215 -123 281 -116 148
-307 277 -543 368 -126 49 -145 56 -150 56 -3 1 -30 8 -60 18 -76 22 -170 47
-200 53 -14 2 -45 9 -70 14 -94 20 -243 47 -295 54 -22 2 -47 7 -55 10 -8 2
-46 7 -85 11 -38 3 -86 8 -105 11 -56 7 -130 15 -195 19 -33 2 -60 4 -60 5 0
3 -194 14 -465 25 -47 2 -87 4 -90 5 -3 1 -9 1 -15 0 -10 -3 -73 -2 -163 3
-28 1 -52 0 -52 -3 0 -7 -85 -4 -97 3 -6 4 -13 4 -16 1z"/>
<path d="M4436 9453 c-2 -3 -51 -9 -136 -18 -19 -2 -36 -4 -37 -5 -2 -2 -11
-3 -20 -4 -10 -1 -40 -5 -68 -10 -27 -4 -66 -10 -85 -12 -19 -3 -66 -12 -105
-19 -38 -8 -88 -17 -110 -20 -22 -4 -51 -9 -65 -12 -14 -2 -31 -5 -37 -5 -7
-1 -13 -5 -13 -10 0 -5 -4 -7 -9 -3 -6 3 -41 -1 -78 -10 -37 -8 -79 -17 -93
-19 -14 -3 -34 -7 -45 -10 -81 -19 -123 -29 -145 -33 -14 -4 -35 -7 -47 -7
-13 -1 -23 -4 -23 -8 0 -6 -14 -10 -93 -24 -9 -1 -21 -5 -26 -8 -5 -3 -26 -8
-47 -12 -20 -3 -49 -10 -63 -16 -14 -5 -33 -11 -41 -13 -35 -8 -132 -36 -225
-65 -55 -17 -108 -33 -118 -35 -32 -7 -317 -105 -395 -136 -42 -17 -81 -32
-87 -33 -80 -22 -525 -228 -635 -294 -19 -11 -59 -33 -88 -49 -28 -15 -52 -31
-52 -35 0 -4 -4 -8 -10 -8 -5 0 -32 -16 -59 -35 -26 -19 -53 -35 -59 -35 -6 0
-12 -3 -14 -7 -1 -5 -30 -28 -63 -53 -33 -25 -66 -49 -73 -55 -38 -28 -212
-204 -212 -214 0 -6 -4 -11 -10 -11 -5 0 -9 -3 -8 -7 1 -5 -5 -19 -14 -33 -20
-30 -78 -173 -84 -208 -3 -14 -7 -29 -9 -33 -9 -13 -36 -154 -43 -219 -4 -36
-7 -150 -6 -255 0 -175 3 -232 19 -385 4 -30 8 -71 10 -90 2 -19 4 -35 5 -35
1 0 3 -16 5 -35 4 -34 15 -109 21 -140 1 -8 6 -35 10 -60 4 -25 8 -49 10 -55
1 -5 5 -27 8 -49 3 -21 8 -41 11 -45 2 -4 6 -25 9 -47 2 -21 12 -70 21 -109 9
-38 19 -81 21 -95 3 -14 7 -33 10 -42 3 -9 7 -26 9 -37 10 -43 13 -57 30 -121
9 -36 18 -69 19 -75 1 -5 5 -16 9 -22 5 -7 6 -13 3 -13 -2 0 2 -24 10 -52 8
-29 17 -64 20 -78 3 -13 10 -30 16 -37 6 -7 8 -13 5 -13 -3 0 -1 -15 4 -32 6
-18 12 -40 14 -48 2 -8 8 -26 13 -40 5 -14 10 -29 10 -33 0 -7 38 -136 50
-167 6 -17 9 -27 16 -55 8 -30 130 -387 166 -485 18 -47 33 -89 34 -95 1 -5
10 -27 19 -49 9 -21 17 -42 17 -45 0 -15 214 -542 275 -676 12 -27 42 -95 66
-150 24 -55 47 -101 51 -103 5 -2 8 -10 8 -17 0 -15 3 -21 183 -385 128 -258
182 -360 288 -549 33 -57 59 -107 59 -112 0 -5 5 -9 11 -9 5 0 8 -4 5 -9 -4
-5 -3 -11 2 -13 10 -4 92 -144 92 -157 0 -6 5 -11 10 -11 6 0 10 -6 10 -14 0
-8 4 -16 8 -18 7 -3 62 -90 87 -139 5 -10 13 -19 17 -19 5 0 8 -5 8 -10 0 -13
120 -194 132 -198 4 -2 8 -8 8 -14 0 -8 61 -101 97 -148 44 -56 83 -111 83
-116 0 -3 13 -19 30 -37 16 -18 30 -35 30 -39 0 -3 9 -17 20 -30 10 -12 44
-54 75 -93 31 -38 68 -84 83 -100 15 -17 47 -55 72 -85 88 -105 400 -410 420
-410 5 0 10 -4 12 -8 2 -5 32 -31 68 -58 36 -26 68 -53 72 -59 4 -5 8 -6 8 -2
0 5 17 -4 38 -20 46 -35 64 -45 177 -104 130 -67 265 -107 382 -114 32 -2 60
-5 63 -6 3 -1 9 -1 14 0 5 1 33 4 63 7 67 5 169 29 231 53 54 20 73 27 87 31
17 5 179 91 190 101 5 5 17 9 26 9 10 0 19 3 21 8 2 4 41 32 88 62 111 70 288
201 342 252 10 10 21 18 26 18 4 0 14 8 23 18 8 9 39 37 68 61 147 124 453
431 606 607 28 31 60 66 73 77 12 12 22 27 22 34 0 7 4 13 8 13 5 0 31 28 59
62 28 35 60 72 70 83 38 42 245 306 347 445 59 80 114 153 122 163 8 9 14 20
14 23 0 2 4 10 10 17 47 58 61 77 55 77 -3 0 1 8 11 17 9 9 79 112 155 228 76
115 143 215 149 222 5 7 10 16 10 21 0 5 9 19 20 32 22 25 27 45 8 34 -6 -4
-21 -8 -32 -10 -12 -2 -32 -6 -46 -9 -90 -20 -332 -28 -371 -11 -9 4 -27 8
-40 10 -32 4 -48 11 -151 59 -49 22 -88 44 -88 49 0 4 -5 8 -12 8 -13 0 -133
89 -202 151 -60 54 -207 203 -238 243 -13 15 -36 42 -51 60 -26 29 -181 231
-220 286 -41 58 -226 339 -253 383 -16 27 -36 61 -45 75 -117 193 -232 406
-361 667 -50 99 -94 187 -99 195 -5 8 -12 22 -15 30 -4 8 -22 49 -41 90 -59
125 -103 228 -103 239 0 6 -4 11 -8 11 -4 0 -14 17 -21 38 -7 20 -22 57 -33
81 -31 69 -115 276 -159 391 -22 58 -45 116 -51 130 -7 14 -12 27 -13 30 -1 3
-4 12 -8 20 -11 28 -108 295 -111 305 -6 24 -19 63 -36 110 -9 28 -23 70 -31
95 -7 25 -17 51 -22 58 -5 6 -7 12 -3 12 3 0 -1 17 -9 38 -13 33 -33 98 -81
267 -21 71 -25 88 -29 105 -1 8 -5 22 -8 30 -6 14 -21 72 -33 130 -3 14 -14
59 -26 100 -11 41 -21 88 -24 104 -2 15 -6 36 -9 46 -3 10 -7 31 -10 46 -2 16
-8 49 -14 74 -5 25 -13 67 -17 95 -3 27 -8 61 -10 75 -32 200 -37 522 -10 670
3 14 7 36 10 50 8 43 34 137 43 156 52 106 60 118 125 187 72 75 73 76 48 74
-11 -1 -22 -3 -24 -4z"/>
</g>
</svg>
